<svg xmlns="http://www.w3.org/2000/svg" xmlns:xlink="http://www.w3.org/1999/xlink" viewBox="0 0 65 71"><defs><linearGradient id="g" x1=".9570301" x2="-.0588125" y1="1.30415273" y2="-.48324075"><stop offset="0" stop-color="#21CE9A"/><stop offset=".25" stop-color="#2EB1BB"/><stop offset=".57" stop-color="#3C91DE"/><stop offset=".83" stop-color="#457EF3"/><stop offset="1" stop-color="#4877FB"/></linearGradient><linearGradient id="j" x1="1" x2=".19328426" y1=".4207045" y2=".44895622"><stop offset="0" stop-color="#CBDDEE"/><stop offset="1" stop-color="#B8D0E6"/></linearGradient><linearGradient id="l" x1="1.18428862" x2="0" y1=".7113698" y2=".41313583"><stop offset="0" stop-color="#E78978"/><stop offset="1" stop-color="#CD7365"/></linearGradient><linearGradient id="o" x1="1.1705333" x2=".5" y1=".5" y2="1"><stop offset="0" stop-color="#E78978"/><stop offset="1" stop-color="#CD7365"/></linearGradient><linearGradient id="p" x1="1.11345327" x2=".5" y1=".35499495" y2="1"><stop offset="0" stop-color="#4D4278"/><stop offset="1" stop-color="#332C57"/></linearGradient><linearGradient id="r" x1="1.11345327" x2=".5" y1=".35499495" y2="1"><stop offset="0" stop-color="#233659"/><stop offset="1" stop-color="#233659"/></linearGradient><clipPath id="h"><use xlink:href="#a"/></clipPath><clipPath id="i"><use xlink:href="#b"/></clipPath><clipPath id="k"><use xlink:href="#c"/></clipPath><clipPath id="m"><use xlink:href="#d"/></clipPath><clipPath id="n"><use xlink:href="#e"/></clipPath><clipPath id="q"><use xlink:href="#f"/></clipPath><path id="a" d="M31.0221 62.0441c17.133 0 31.022-13.889 31.022-31.022S48.1551 0 31.0221 0 0 13.8891 0 31.0221s13.8891 31.022 31.0221 31.022z" transform="translate(.1892413 .1892413)"/><path id="b" d="M31.0655.801255L17.4385 5.04628c-5.6296.39227-15.49889.38518-19.63786 4.22124C-9.02365 15.5924 0 28.1378 0 28.1378l11.615 6.9646 3.0588-6.9646s6.2761 11.73 6.2761 43.9227h37.5843l2.3324-40.4877 10.7084-7.1625-8.288-10.807c-1.3734-2.9174-3.5164-6.16177-6.662-6.87049C50.5393 5.36171 41.3947 2.90488 38.4873 0l-7.4218.801255z"/><path id="c" d="M19.5577 4.74018L0 152.378l10.7985 1.367L38.9817 42.7248 49.5572 152.286h11.3816L58.4391 4.74018l.1958-3.878642S40.1329 1.84066 19.1858 0l.3719 4.74018z"/><path id="d" d="M16.9568 6.96463L12.2216 20.0324l13.3652 23.2603 5.2616 1.7931-4.837 10.0813-3.2115-6.98L8.23647 33.3446C2.5901 27.5901.00295019 16.6999 2.45792 9.02072 3.99606 4.2094 5.34178 0 5.34178 0L16.9568 6.96463z"/><path id="e" d="M2.18979 1.25294S2.51144 15.1816 0 19.4256c0 0 2.95255 5.0275 8.80978 5.0275 5.85722 0 4.63652-5.0275 4.63652-5.0275s-1.0954-.7795-2.7085-12.30039c-.0877-.62594 1.2663-2.6705 1.1422-3.21395-1.3991-6.12498-9.69021-2.65832-9.69021-2.65832z" transform="translate(.1984315 .05753404)"/><path id="f" d="M17.799 61.5385l-7.0906-9.1532L0 35.9909l10.7084-7.1625 5.1407 9.3405 7.5439-20.2604s1.2561-3.6086 1.9939-4.6422c.7377-1.0336 1.414-.7728 2.6689-1.8904.7591-.676.5947-3.65971.4595-6.11497-.0884-1.60398-.1643-2.98244.0378-3.34461.5113-.916554 1.3581 4.43015 1.3581 4.43015V2.83288c0-5.18725 1.268-2.054808 1.268 0 0 .92275.5544 2.73958 1.1651 4.46138.8085 2.27908.5527 5.74904-.719 7.80594l-3.0722 4.9691-6.7814 40.4695c-.4663 2.7825-2.2449 3.2301-3.9727.9997z" transform="translate(0 5.926295)"/></defs><path fill="url(#g)" fill-opacity=".4" d="M31.0221 62.0441c17.133 0 31.022-13.889 31.022-31.022S48.1551 0 31.0221 0 0 13.8891 0 31.0221s13.8891 31.022 31.0221 31.022z" transform="translate(.63533494 6.9459545)"/><g clip-path="url(#h)" transform="translate(.44609364 6.7567132)"><path fill="#4573FF" d="M23.91369 32.854335l-13.627 4.245025c-5.6296.39227-15.49889.38518-19.63786 4.22124-6.82429 6.32488 2.19936 18.87028 2.19936 18.87028l11.615 6.9646 3.0588-6.9646s6.2761 11.73 6.2761 43.9227h37.5843l2.3324-40.4877 10.7084-7.1625-8.288-10.807c-1.3734-2.9174-3.5164-6.16177-6.662-6.87049-6.0857-1.3711-15.2303-3.82793-18.1377-6.73281l-7.4218.801255z"/><g clip-path="url(#i)" transform="translate(-7.15181 32.05308)"><path fill="#FFF" fill-opacity=".2" fill-rule="evenodd" d="M41.64781 6.01033c0 11.6908 9.47723 21.168 21.168 21.168 11.6908 0 21.168-9.4772 21.168-21.168 0-11.69077-9.4772-21.168-21.168-21.168-11.69077 0-21.168 9.47723-21.168 21.168zm35.0367 0c0 7.6595-6.2092 13.8687-13.8687 13.8687s-13.86869-6.2092-13.86869-13.8687S55.15631-7.85836 62.81581-7.85836s13.8687 6.20919 13.8687 13.86869z"/><path fill="#D33234" d="M14.83908 28.21517l-.33053-.15475 2.62916-5.61539.33053.154757-2.62916 5.615383zM61.048904 31.58009l-.364674-.0145.454686-11.3712.364674.0145818-.454686 11.3711182z"/><path fill="#D0516A" fill-opacity=".3" d="M10.26078 48.34632l34.13551697-19.70815 4.74455 8.21780162-34.13551697 19.70815L10.26078 48.34632z"/><path fill="#FFF" fill-opacity=".1" d="M37.99815 51.26604l34.13551697-19.70815 4.74455 8.21780162L42.7427 59.48384162 37.99815 51.26604z"/><path fill="#FFF" fill-rule="evenodd" d="M20.29733-5.6686c0 9.7759 7.92493 17.7008 17.7008 17.7008 9.7759 0 17.7008-7.9249 17.7008-17.7008 0-9.77587-7.9249-17.7008-17.7008-17.7008-9.77587 0-17.7008 7.92493-17.7008 17.7008zm35.0367 0c0 9.5744-7.7615 17.3359-17.3359 17.3359-9.57431 0-17.335835-7.7615-17.335835-17.3359 0-9.57431 7.761525-17.335835 17.335835-17.335835 9.5744 0 17.3359 7.761525 17.3359 17.335835z"/></g><path fill="#CD7365" d="M-4.7125987 247.56641l-.429758 6.26031 7.79951 1.52707 1.73069-9.99681-9.100442 2.20943z"/><path fill="#332C57" d="M-6.0018567 253.268894l9.6824 1.28226.7073 9.49464h-26.57250899c-.25395401-5.66161 14.73060899-5.66161 16.18280899-10.7769z"/><path fill="#7297C4" d="M-21.4579258 262.904395v-.364965h22.2188v.364965h-22.2188z"/><path fill="#CD7365" d="M53.768042 247.56641l.429758 6.26031-7.79951 1.52707-1.73069-9.99681 9.100442 2.20943z"/><path fill="#332C57" d="M55.0573 253.268894l-9.6824 1.28226-.7073 9.49464h26.57250899c.25395401-5.66161-14.73060899-5.66161-16.18280899-10.7769z"/><path fill="#7297C4" d="M70.5133691 262.904395v-.364965h-22.2188v.364965h22.2188z"/><g><path fill="url(#j)" d="M19.5577 4.74018L0 152.378l10.7985 1.367L38.9817 42.7248 49.5572 152.286h11.3816L58.4391 4.74018l.1958-3.878642S40.1329 1.84066 19.1858 0l.3719 4.74018z" transform="translate(-6.00187 97.91778)"/><g clip-path="url(#k)" transform="translate(-6.00187 97.91778)"><path fill="#9BC5ED" fill-rule="evenodd" d="M-15.70682 119.41244c0 11.6908 9.47723 21.168 21.168 21.168 11.6908 0 21.168-9.4772 21.168-21.168 0-11.69077-9.4772-21.168-21.168-21.168-11.69077 0-21.168 9.47723-21.168 21.168zm35.0367 0c0 7.6595-6.2092 13.8687-13.8687 13.8687s-13.86869-6.2092-13.86869-13.8687 6.20919-13.86869 13.86869-13.86869 13.8687 6.20919 13.8687 13.86869z"/><path fill="#FFF" fill-opacity=".2" d="M36.84821 58.39448l34.13551697-19.70815 4.74455 8.21780162-34.13551697 19.70815L36.84821 58.39448z"/><path fill="#495180" fill-opacity=".1" d="M55.82642 72.9931h1.45986c3.22499 0 5.83949 2.61441 5.83949 5.83945v4.37955c0 3.2251-2.6145 5.8395-5.83949 5.8395h-1.45986c-3.22504 0-5.83945-2.6144-5.83945-5.8395v-4.37955c0-3.22504 2.61441-5.83945 5.83945-5.83945zM18.99456 72.9696462l1.44565.2031738c3.19366.448838 5.41876 3.40166 4.96996 6.59531l-.6096 4.33696c-.4488 3.1937-3.40161 5.4188-6.59527 4.9699l-1.44565-.2031c-3.19365-.4489-5.418762-3.4017-4.9699238-6.59535l.6095208-4.33697c.448843-3.19365 3.401663-5.418762 6.595313-4.9699238z"/><path fill="#7297C4" d="M25.37099 5.225895l.32657.16295-7.169121 14.36765-.326569-.163 7.16912-14.3676z"/><path fill="none" stroke="#7297C4" stroke-width=".5" d="M39.04926 43.27426l4.36584-22.1394"/><path fill="#7297C4" d="M.6978003 149.808664l.0642613-.359264 8.9525187 1.60133-.06426.35927-8.95252-1.601336zM60.92097 148.7175l.03562.363222-8.1627624.800668-.0356276-.363223 8.16277-.800667zM41.05033 32.219661l.363718-.030151 9.437292 113.844-.36372.03-9.43729-113.843849zM18.8446908 17.11435l.3613.0517342L.9105708 144.93035l-.36128-.052 18.2954-127.764z"/><path fill="#8EADCA" fill-rule="evenodd" d="M20.910495 1.114581l-.149715 1.45216c2.74146.28264 5.41305.52415 8.0148.72453l.11211-1.455553c-2.58903-.199396-5.2481-.439774-7.977195-.721137zm31.967585 1.33349l.0548 1.45883c1.5913-.0598 3.1435-.14265 4.6568-.24857l-.1019-1.4563c-1.4974.1048-3.034.18682-4.6097.24604zm-16.0633 1.34179l.0673-1.45831c2.7558.12709 5.4221.20193 7.999.22454l-.0128 1.4598c-2.5953-.02277-5.2798-.09812-8.0535-.22603z"/><path fill="#332C57" d="M43.4151 19.675l-4.36584 23.5993 4.36584 58.98V19.675z"/></g></g><g><path fill="url(#l)" d="M16.9568 6.96463L12.2216 20.0324l13.3652 23.2603 5.2616 1.7931-4.837 10.0813-3.2115-6.98L8.23647 33.3446C2.5901 27.5901.00295019 16.6999 2.45792 9.02072 3.99606 4.2094 5.34178 0 5.34178 0L16.9568 6.96463z" transform="translate(-12.493592 60.19088)"/><g clip-path="url(#m)" transform="translate(-12.493592 60.19088)"><path fill="#D33234" fill-opacity=".3" d="M.149587 28.67143c3.42661 0 6.20439-2.77778 6.20439-6.20439 0-3.4266-2.77778-6.20441-6.20439-6.20441-3.4266 0-6.20441 2.77781-6.20441 6.20441 0 3.42661 2.77781 6.20439 6.20441 6.20439z"/></g></g><g><path fill="#CD7365" d="M23.5597265 15.11033404s.32165 13.92866-2.18979 18.17266c0 0 2.95255 5.0275 8.80978 5.0275 5.85722 0 4.63652-5.0275 4.63652-5.0275s-1.0954-.7795-2.7085-12.30039c-.0877-.62594 1.2663-2.6705 1.1422-3.21395-1.3991-6.12498-9.69021-2.65832-9.69021-2.65832z"/><g clip-path="url(#n)" transform="translate(21.171505 13.79986)"><path fill="#332C57" d="M3.653814 4.096201s2.82247 11.7518 11.7741 11.0049l-.9075-7.50457-10.8666-3.50033z"/></g><path fill="url(#o)" d="M13.2281 26.7071c7.4013 0 5.5151-9.8975 5.5151-15.8781C18.7432 4.84829 16.0361 0 10.0555 0 4.07479 0 0 4.84829 0 10.829c0 5.9806 5.82683 15.8781 13.2281 15.8781z" transform="translate(21.677436 -.622933)"/><path fill="#CD7365" d="M21.67744 18.01834c1.92235 0 3.48073-1.55838 3.48073-3.48073 0-1.92236-1.55838-3.48074-3.48073-3.48074-1.92236 0-3.48074 1.55838-3.48074 3.48074 0 1.92235 1.55838 3.48073 3.48074 3.48073z"/><path fill="url(#p)" d="M1.16551 17.5991c.59141 1.0293.87007 3.1234 1.81474 3.1234.41455 0 .41921-2.6068 1.17085-3.8826.96118-1.6314.63494-2.9157.50375-5.3056 0 0 10.38275 1.1838 14.32445-.5609 0 0 .6536 1.5924.9114 4.5706 0 0 6.1625-8.00722 4.8232-13.0881-1.3392-5.08088-6.1501-1.1284-12.2917 1.57879C6.28073 6.74187 0 4.74938 0 9.52698c0 2.82872.924252 7.65222 1.16551 8.07212z" transform="translate(20.503318 -6.1849024)"/><path fill="#091E67" d="M28.153044 9.81596l-.204552-.302258c1.39998-.947443 2.81919-.947443 4.21917 0l-.20455.302258c-1.27643-.863832-2.53364-.863832-3.810068 0zM36.912212 9.81596l-.204552-.302258c1.39998-.947443 2.81919-.947443 4.21917 0l-.20455.302258c-1.27643-.863832-2.53364-.863832-3.810068 0zM32.065391 15.13931c.403129 0 .729929-.4902.729929-1.09489 0-.604698-.3268-1.0949-.729929-1.0949-.40313 0-.729931.490202-.729931 1.0949 0 .60469.326801 1.09489.729931 1.09489zM37.904831 15.13931c.403129 0 .729929-.4902.729929-1.09489 0-.604698-.3268-1.0949-.729929-1.0949-.40313 0-.729931.490202-.729931 1.0949 0 .60469.326801 1.09489.729931 1.09489z"/><path fill="#FFB1A5" d="M35.36364 11.12469h.364965c0 2.62278.411004 4.65436 1.227405 6.09434.24085.42484.10448.96402-.30941 1.22325l-1.003613.6286-.1937285-.30931 1.0036115-.6286c.24833-.15554.33016-.47904.18564-.73395-.851782-1.50239-1.27487-3.5937-1.27487-6.27433z"/><path fill="#C21518" d="M34.74926 20.484826l-.25821.257924c-.49744-.497978-1.100581-.745135-1.81988-.745135v-.364965c.815635 0 1.51181.285282 2.07809.852176z"/></g><g><path fill="#332C57" d="M80.82548 22.81208c.16335-.648712.74671-1.10339 1.41567-1.10339h7.09725c.0691 0 .1378.00980358.2041.0291174.387.1127246.6094.5178716.4967.9049206L85.15178 39.42399c-.17721.6084-.72674 1.0331-1.36022 1.051l-6.503054.1846c-.067.0019-.133942-.0055-.198939-.0218-.390927-.0985-.6280356-.4952-.5295975-.8861L80.82548 22.81208z"/><path fill="url(#o)" fill-rule="evenodd" d="M17.799 61.5385l-7.0906-9.1532L0 35.9909l10.7084-7.1625 5.1407 9.3405 7.5439-20.2604s1.2561-3.6086 1.9939-4.6422c.7377-1.0336 1.414-.7728 2.6689-1.8904.7591-.676.5947-3.65971.4595-6.11497-.0884-1.60398-.1643-2.98244.0378-3.34461.5113-.916554 1.3581 4.43015 1.3581 4.43015V2.83288c0-5.18725 1.268-2.054808 1.268 0 0 .92275.5544 2.73958 1.1651 4.46138.8085 2.27908.5527 5.74904-.719 7.80594l-3.0722 4.9691-6.7814 40.4695c-.4663 2.7825-2.2449 3.2301-3.9727.9997z" transform="translate(53.71475 27.634985)"/><g clip-path="url(#q)" transform="translate(53.71475 21.70869)"><path fill="#D33234" fill-opacity=".3" d="M17.8833 68.61348c3.42661 0 6.20439-2.77778 6.20439-6.20439 0-3.4266-2.77778-6.20441-6.20439-6.20441-3.4266 0-6.20441 2.77781-6.20441 6.20441 0 3.42661 2.77781 6.20439 6.20441 6.20439z"/><path fill="#442C57" d="M14.75717 42.15376l1.14498 2.0718-2.22325 10.2337 1.07827-12.3055z"/></g></g></g><g><path fill="#CD7365" d="M24.0058267 21.86704768s.32165 13.92866-2.18979 18.17266c0 0 2.95255 5.0275 8.80978 5.0275 5.85722 0 4.63652-5.0275 4.63652-5.0275s-1.0954-.7795-2.7085-12.30039c-.0877-.62594 1.2663-2.6705 1.1422-3.21395-1.3991-6.12498-9.69021-2.65832-9.69021-2.65832z"/><g clip-path="url(#n)" transform="translate(21.6176052 20.55657364)"><path fill="#332C57" d="M3.653814 4.096201s2.82247 11.7518 11.7741 11.0049l-.9075-7.50457-10.8666-3.50033z"/></g><path fill="url(#o)" d="M13.2281 26.7071c7.4013 0 5.5151-9.8975 5.5151-15.8781C18.7432 4.84829 16.0361 0 10.0555 0 4.07479 0 0 4.84829 0 10.829c0 5.9806 5.82683 15.8781 13.2281 15.8781z" transform="translate(22.1235362 6.13378064)"/><path fill="#CD7365" d="M22.1235402 24.77505364c1.92235 0 3.48073-1.55838 3.48073-3.48073 0-1.92236-1.55838-3.48074-3.48073-3.48074-1.92236 0-3.48074 1.55838-3.48074 3.48074 0 1.92235 1.55838 3.48073 3.48074 3.48073z"/><path fill="url(#r)" d="M1.16551 17.5991c.59141 1.0293.87007 3.1234 1.81474 3.1234.41455 0 .41921-2.6068 1.17085-3.8826.96118-1.6314.63494-2.9157.50375-5.3056 0 0 10.38275 1.1838 14.32445-.5609 0 0 .6536 1.5924.9114 4.5706 0 0 6.1625-8.00722 4.8232-13.0881-1.3392-5.08088-6.1501-1.1284-12.2917 1.57879C6.28073 6.74187 0 4.74938 0 9.52698c0 2.82872.924252 7.65222 1.16551 8.07212z" transform="translate(20.9494182 .57181124)"/><path fill="#091E67" d="M28.5991442 16.57267364l-.204552-.302258c1.39998-.947443 2.81919-.947443 4.21917 0l-.20455.302258c-1.27643-.863832-2.53364-.863832-3.810068 0zM37.3583122 16.57267364l-.204552-.302258c1.39998-.947443 2.81919-.947443 4.21917 0l-.20455.302258c-1.27643-.863832-2.53364-.863832-3.810068 0zM32.5114912 21.89602364c.403129 0 .729929-.4902.729929-1.09489 0-.604698-.3268-1.0949-.729929-1.0949-.40313 0-.729931.490202-.729931 1.0949 0 .60469.326801 1.09489.729931 1.09489zM38.3509312 21.89602364c.403129 0 .729929-.4902.729929-1.09489 0-.604698-.3268-1.0949-.729929-1.0949-.40313 0-.729931.490202-.729931 1.0949 0 .60469.326801 1.09489.729931 1.09489z"/><path fill="#FFB1A5" d="M35.8097402 17.88140364h.364965c0 2.62278.411004 4.65436 1.227405 6.09434.24085.42484.10448.96402-.30941 1.22325l-1.003613.6286-.1937285-.30931 1.0036115-.6286c.24833-.15554.33016-.47904.18564-.73395-.851782-1.50239-1.27487-3.5937-1.27487-6.27433z"/><path fill="#C21518" d="M35.1953602 27.24153964l-.25821.257924c-.49744-.497978-1.100581-.745135-1.81988-.745135v-.364965c.815635 0 1.51181.285282 2.07809.852176z"/></g></svg>