<svg xmlns="http://www.w3.org/2000/svg" xmlns:xlink="http://www.w3.org/1999/xlink" viewBox="0 0 64 70"><defs><clipPath id="i"><use xlink:href="#a"/></clipPath><clipPath id="j"><use xlink:href="#b"/></clipPath><clipPath id="k"><use xlink:href="#c"/></clipPath><clipPath id="l"><use xlink:href="#d"/></clipPath><clipPath id="n"><use xlink:href="#e"/></clipPath><clipPath id="o"><use xlink:href="#f"/></clipPath><clipPath id="q"><use xlink:href="#g"/></clipPath><path id="a" d="M31.433 62.866c17.36 0 31.433-14.073 31.433-31.433S48.793 0 31.433 0 0 14.073 0 31.433s14.073 31.433 31.433 31.433z"/><path id="b" d="M30.6636.805983L38.1292 0l15.4227 7.72777C58.6657 10.2901 62.9271 14.28 65.8201 19.2144l16.5647 28.2533-3.6808 5.0271c-.221.3018-.4868.5681-.7882.7896-1.6339 1.2006-3.9316.8494-5.1322-.7845l-13.6223-18.538.6123 37.7896H20.4883c0-18.1395-.5913-31.7563-1.7739-40.8506l-6.0519 21.2677-2.0638 10.8108-.74022.2698c-1.26429.4609-2.63092.5655-3.95061.3023-3.97678-.793-6.557716-4.6597-5.764682-8.6365L5.7992 26.5521c1.69944-8.522 7.0597-15.866 14.6581-20.08243L30.6636.805983z" transform="translate(.0159292)"/><path id="c" d="M0 1.92785C.6583 13.7998 9.05407 26.8362 13.6727 26.558c4.6187-.2782 3.8091-15.4919-1.696-26.558L0 1.92785z"/><path id="d" d="M2.14943 1.22984S2.46515 12.0359 0 16.2016c.977733 3.7262 4.16142 7.079 8.52802 6.7261 4.36658-.3529 4.77768-4.7572 4.72088-5.9542 0 0-2.162-3.922-2.709-9.97961-.0566-.62662 1.243-2.62128 1.1211-3.15471-1.3732-6.0121-9.51157-2.60934-9.51157-2.60934z"/><path id="e" d="M25.4132 0l-6.4034 2.72256c-2.1067.89575-3.4551-1.52437-5.7324-1.758291-.1746-.017935-.3645.000651-.5708.063961C7.48986 4.0915 0 4.49297 0 9.09559h23.9564L25.4132 0z" transform="translate(0 .09036132)"/><path id="f" d="M25.1381 0l-6.4796 3.04495c-2.1529 1.01172-3.0005-1.42593-5.3114-1.99002-.1875-.04577-.3999-.03897-.6405.03484C7.48986 4.15304 0 4.55451 0 9.15713h24.9125L25.1381 0z" transform="translate(.2438539 .02882613)"/><path id="g" d="M5.33477 0L-.212764-.807121C-.537089 10.2-.195474 28.0576.0504508 39.0668 1.14349 87.9981 3.73328 113.86 4.17906 151.751l14.71714 1.386 7.0305-114.7102 30.456 114.7102 14.3603-.695L44.62 0H5.33477z" transform="translate(.2585412 .08395734)"/><linearGradient id="h" x1=".9570301" x2="-.0588125" y1="1.30415273" y2="-.48324075"><stop offset="0" stop-color="#21CE9A"/><stop offset=".25" stop-color="#2EB1BB"/><stop offset=".57" stop-color="#3C91DE"/><stop offset=".83" stop-color="#457EF3"/><stop offset="1" stop-color="#4877FB"/></linearGradient><linearGradient id="m" x1="1.07272112" x2="0" y1="0" y2="1.17664528"><stop offset="0" stop-color="#FFD9CA"/><stop offset="1" stop-color="#FFBBA6"/></linearGradient><linearGradient id="p" x1="1" x2=".19328426" y1=".4207045" y2=".44895622"><stop offset="0" stop-color="#CBDDEE"/><stop offset="1" stop-color="#B8D0E6"/></linearGradient></defs><path fill="#233659" d="M17.5281679 33.8668621c-3.63586-3.3003-.761532-22.283 4.70126-28.92833 4.49897-5.472821 12.62337-5.90432 18.59137-1.91142 5.9679 3.9929 7.8193 11.06655 4.5457 34.50465 0 0-22.6073 1.0832-27.83833-3.6649z"/><path fill="url(#h)" fill-opacity=".4" d="M31.433 62.866c17.36 0 31.433-14.073 31.433-31.433S48.793 0 31.433 0 0 14.073 0 31.433s14.073 31.433 31.433 31.433z" transform="translate(.3787079 5.8024901)"/><g clip-path="url(#i)" transform="translate(.3787079 5.8024901)"><path fill="#233659" d="M17.149457 28.064372c-3.63586-3.3003-.761532-22.283 4.70126-28.92833 4.49897-5.472821 12.62337-5.90432 18.59137-1.91142 5.9679 3.9929 7.8193 11.06655 4.5457 34.50465 0 0-22.6073 1.0832-27.83833-3.6649z"/><path fill="#4573FF" d="M26.0501806 28.710525l7.4656-.805983 15.4227 7.72777c5.1138 2.56233 9.3752 6.55223 12.2682 11.48663l16.5647 28.2533-3.6808 5.0271c-.221.3018-.4868.5681-.7882.7896-1.6339 1.2006-3.9316.8494-5.1322-.7845l-13.6223-18.538.6123 37.7896h-39.2853c0-18.1395-.5913-31.7563-1.7739-40.8506l-6.0519 21.2677-2.0638 10.8108-.74022.2698c-1.26429.4609-2.63092.5655-3.95061.3023-3.97678-.793-6.557716-4.6597-5.764682-8.6365l5.656012-28.3629c1.69944-8.522 7.0597-15.866 14.6581-20.08243l10.2063-5.663687z"/><g clip-path="url(#j)" transform="translate(-4.6293486 27.904542)"><path fill="#FFF" d="M24.9474158.646772l.377493-.030357c1.056767 13.14115 9.872607 27.68895 17.206607 27.68895 3.4764 0 5.4479-3.6311 5.667-9.6925.2048-5.669-1.1897-12.7532-3.6574-18.49118l.3479-.14962c2.4894 5.78842 3.8949 12.9281 3.6879 18.6545-.2254 6.2391-2.2986 10.0575-6.0454 10.0575-7.59069 0-16.51351-14.7244-17.5841-28.037293z"/><path fill="#FFF" d="M28.429704-.707052c.6583 11.87195 9.05407 24.90835 13.6727 24.63015 4.6187-.2782 3.8091-15.4919-1.696-26.558l-11.9767 1.92785z"/><g clip-path="url(#k)" transform="translate(28.429704 -2.634902)"><path fill="#332C57" d="M16.305857 13.83129c.7254 6.54492-.6787 18.0749-10.7242 5.39831l3.23618 9.08009 9.30962.5292 1.5066-7.50378-3.3282-7.50382z"/></g><path fill="#442C57" d="M74.61262 30.93718l1.72737 3.5054-5.96267 14.5407 4.2353-18.0461z"/><path fill="#FFF" d="M58.63665 21.764699l.351971-.113439 1.457359 4.52178c.55283 1.71528.78925 3.51677.69772 5.31661l-.22353 4.39551-.36932-.0188.22353-4.39549c.08925-1.75508-.14129-3.51177-.68037-5.18439l-1.45736-4.521781zM18.580598 33.53003l-.362738-.0719 2.13841-10.7847.36274.0719246L18.580598 33.53003zM43.1303 27.7949l.3696.0120965L42.031422 72.6755l-.369602-.0121 1.46848-44.8685z"/></g><path fill="#FFC5B2" d="M26.361318 14.1495188s.31572 10.80606-2.14943 14.97176c.977733 3.7262 4.16142 7.079 8.52802 6.7261 4.36658-.3529 4.77768-4.7572 4.72088-5.9542 0 0-2.162-3.922-2.709-9.97961-.0566-.62662 1.243-2.62128 1.1211-3.15471-1.3732-6.0121-9.51157-2.60934-9.51157-2.60934z"/><g clip-path="url(#l)" transform="translate(24.211888 12.9196788)"><path fill="#233659" d="M3.795319 4.300537s2.74345 10.7027 11.3601 9.98377l-.9001-6.61441-10.46-3.36936z"/></g><path fill="url(#m)" d="M12.9843 26.2149c7.2649 0 5.4135-9.7151 5.4135-15.5855C18.3978 4.75893 15.7406 0 9.87014 0 3.99969 0 0 4.75893 0 10.6294c0 5.8704 5.71944 15.5855 12.9843 15.5855z" transform="translate(24.513722 -1.2937012)"/><path fill="#4D3644" d="M28.463725 9.0224588s-.21446 3.84012-1.44697 4.94878l-2.69772-4.409353 4.14469-.539427z"/><path fill="#C21518" d="M34.769182 18.5033928l.366232-.051244c.143085 1.0226.782148 1.48167 1.988388 1.40895l.02225.36913c-1.389522.08377-2.205548-.50243-2.37687-1.726836z"/><path fill="#FFC5B2" d="M24.513732 17.0040688c1.88692 0 3.41658-1.52966 3.41658-3.41658 0-1.88693-1.52966-3.41659-3.41658-3.41659-1.88693 0-3.41659 1.52966-3.41659 3.41659 0 1.88692 1.52966 3.41658 3.41659 3.41658z"/><path fill="#091E67" d="M30.873236 8.9576208l-.207262-.306261c1.37614-.931305 2.77175-.931305 4.14789 0l-.20726.306261c-1.25095-.846586-2.48242-.846586-3.733368 0zM39.470964 8.9576208l-.207262-.306261c1.37614-.931305 2.77175-.931305 4.14789 0l-.20726.306261c-1.25095-.846586-2.48242-.846586-3.733368 0zM33.99375 14.1780088c.395702 0 .716482-.48117.716482-1.07472 0-.593553-.32078-1.07472-.716482-1.07472-.3957 0-.716478.481167-.716478 1.07472 0 .59355.320778 1.07472.716478 1.07472zM40.44205 14.1780088c.395702 0 .716482-.48117.716482-1.07472 0-.593553-.32078-1.07472-.716482-1.07472-.3957 0-.716478.481167-.716478 1.07472 0 .59355.320778 1.07472.716478 1.07472z"/><path fill="none" stroke="#EA9587" stroke-width=".5" d="M38.126822 10.9538588c0 4.04091-.0109555 4.23839 1.19031 6.03764.22485.33679.61159.87339.76618 1.24768l-1.95649.36262"/><path fill="#233659" d="M39.448152 2.6938s-4.7379 7.41055-14.934424 7.47715c-1.042993-4.48903 1.268504-11.464576 9.304404-11.75535531C41.854052-1.875185 42.741852 6.88226 42.741852 6.88226c-1.5833-2.56039-3.2937-4.18846-3.2937-4.18846zM26.494387 16.48071s-.4696 7.4682 2.15908 14.9364c0 0-9.01482-.7071-11.6097-3.4266l9.45062-11.5098z"/><path fill="#FFF" d="M25.02341 18.00576c.81694 0 1.4792-.66226 1.4792-1.4792 0-.81694-.66226-1.4792-1.4792-1.4792-.81694 0-1.4792.66226-1.4792 1.4792 0 .81694.66226 1.4792 1.4792 1.4792z"/><path fill="url(#m)" d="M12.6387 15.3567c1.062-2.5598 1.6439-4.7558 1.7457-6.58798.1566-2.8186 4.623-8.258598 5.4813-7.27719.8582.98141-1.1638 2.65734-.6147 3.95987.549 1.30253 5.1197-1.41511 5.844-2.47895.7243-1.06384 1.8127-3.464419 2.7217-2.8829034.9091.5815154-1.301 6.5060334-2.517 7.3974134-1.216.89138-5.3946 4.39954-6.0487 5.94184-.4215.9936-.7869 2.1965-1.0962 3.6084l-6.301 32.2041c-.2616 1.3372-1.0436 2.5158-2.17391 3.2767-2.35474 1.5851-5.54863.9612-7.13375-1.3935L0 47.3421l12.6256-31.9894.0131.004z" transform="translate(65.747967 29.545652)"/><g><path fill="#442C57" d="M48.6116096 73.6258154l-25.886 12.4363 1.27538-7.2951 24.61062-5.1412z"/></g><g><path fill="url(#m)" d="M36.5531 7.67424l7.9687-5.64635C50.9588.349168 54.284-.287296 54.4974.118491c.2134.405788-1.4869 1.297579-5.1008 2.675379 5.1403.07444 7.7848.29554 7.9336.66332.1488.36777-.3935.72226-1.6268 1.06347 1.2514.1114 1.7937.34608 1.6268.70405-.1668.35798-2.0158.96784-5.547 1.82958 2.4984-.53133 3.7013-.53133 3.6086 0-.0922.5289-5.7971 2.78336-17.1145 6.76341L10.2629 25.5925c-1.27401.5354-2.67254.7033-4.03705.4844C2.1927 25.43-.552433 21.6361.0944285 17.603l.2966525-1.8496L36.5574 7.6912l-.0043-.01696z" transform="translate(-4.6508393 65.44880927)"/></g><g><path fill="#FFBFAB" d="M68.678423 250.931996l1.81639 7.757786 8.57001 2.42969 3.5224-4.15019-.0235-.04357c-.8908-1.59262-2.8435-3.52151-3.0972-5.32862-.0748-.532456-.1863-1.034897-.4017-1.45232l-10.3864.787224z"/><path fill="#332C57" d="M69.793213 255.71780932l6.4034 2.72256c2.1067.89575 3.4551-1.52437 5.7324-1.758291.1746-.017935.3645.000651.5708.063961 5.21674 3.06327 12.7066 3.46474 12.7066 8.06736h-23.9564l-1.4568-9.09559z"/><g clip-path="url(#n)" transform="matrix(-1 0 0 1 95.206413 255.627448)"><path fill="#86ACDA" d="M-.3329387 7.564737v-.378712h23.0557v.378712h-23.0557z"/></g><g><path fill="#FFBFAB" d="M27.260828 250.17261377l-.641991 8.49259-8.885289 2.42761-3.52242-4.15013.0235-.04357c.8908-1.59261 2.7856-3.53707 2.7598-5.36173-.0115-.8144.022-1.582069.29153-2.10437l9.97487.7396z"/><path fill="#332C57" d="M26.8543969 255.65627413l-6.4796 3.04495c-2.1529 1.01172-3.0005-1.42593-5.3114-1.99002-.1875-.04577-.3999-.03897-.6405.03484-5.21674 3.06327-12.7066 3.46474-12.7066 8.06736h24.9125l.2256-9.15713z"/><g clip-path="url(#o)" transform="translate(1.472443 255.627448)"><path fill="#86ACDA" d="M-.3329387 7.564737v-.378712h23.0557v.378712h-23.0557z"/></g></g><g><path fill="url(#p)" d="M5.33477 0L-.212764-.807121C-.537089 10.2-.195474 28.0576.0504508 39.0668 1.14349 87.9981 3.73328 113.86 4.17906 151.751l14.71714 1.386 7.0305-114.7102 30.456 114.7102 14.3603-.695L44.62 0H5.33477z" transform="translate(10.5401592 98.91622934)"/><g clip-path="url(#q)" transform="translate(10.281618 98.832272)"><path fill="#9BC5ED" fill-rule="evenodd" d="M-15.17528 116.95381c0 10.2117 8.27825 18.49 18.49 18.49 10.2117 0 18.49-8.2783 18.49-18.49 0-10.21175-8.2783-18.49-18.49-18.49-10.21175 0-18.49 8.27825-18.49 18.49zm29.584 0c0 6.127-4.967 11.094-11.094 11.094s-11.094-4.967-11.094-11.094 4.967-11.094 11.094-11.094 11.094 4.967 11.094 11.094z"/><path fill="#7297C4" d="M3.914576 21.96140845l.369715-.00793845 2.658185 123.799-.36971.008-2.65819-123.79906155zM28.96374 36.6510408l.357774-.0935408 28.538026 109.152-.3578.094-28.538-109.1524592zM4.037242 148.47472l.0341501-.36822 12.5605499 1.16492-.0341.36822-12.5606-1.16492z"/><path fill="#FFF" fill-opacity=".25" d="M26.98191 50.68999l34.58766884-19.9692 4.8074 8.32666102-34.58766884 19.9692-4.8074-8.32666102z"/><path fill="#495180" fill-opacity=".14999999" d="M52.93438 72.261979c3.62038-.638371 7.07276 1.779021 7.71116 5.399401l.5137 2.91345c.6384 3.62041-1.779 7.07281-5.3994 7.71111-3.62037.6384-7.07277-1.779-7.711141-5.3994l-.51372-2.91342c-.638371-3.62037 1.779021-7.072771 5.399401-7.711141zM14.408717 73.61758c3.6762 0 6.6564 2.98017 6.6564 6.6564v2.9584c0 3.6762-2.9802 6.6564-6.6564 6.6564-3.67623 0-6.6564-2.9802-6.6564-6.6564v-2.9584c0-3.67623 2.98017-6.6564 6.6564-6.6564z"/><path fill="none" stroke="#7297C4" stroke-width=".5" d="M-14.0524 150.5291l9.07111 1.62254M46.954 149.7895l-8.27089.811279"/><path fill="#7297C4" d="M2.421129 4.336474v-.3698h45.0481v.3698h-45.0481z"/><path fill="#332C57" d="M25.88559 44.66811l1.53558-28.5467 5.73163 53.281-7.26721-24.7343z"/><path fill="#7297C4" d="M71.69691 148.6886l.0254.368927-13.3128039.916423-.0253961-.368928 13.3128-.916422zM10.644885 4.046172l.3038.210804L.069017 19.937872l-.303832-.2108 10.8797-15.6809z"/></g></g></g></g></svg>